<?xml version="1.0" encoding="UTF-8" standalone="no"?>
<svg
   xmlns:dc="http://purl.org/dc/elements/1.1/"
   xmlns:cc="http://creativecommons.org/ns#"
   xmlns:rdf="http://www.w3.org/1999/02/22-rdf-syntax-ns#"
   xmlns:svg="http://www.w3.org/2000/svg"
   xmlns="http://www.w3.org/2000/svg"
   version="1.1"
   id="svg2"
   height="24"
   width="24">
  <metadata
     id="metadata16">
    <rdf:RDF>
      <cc:Work
         rdf:about="">
        <dc:format>image/svg+xml</dc:format>
        <dc:type
           rdf:resource="http://purl.org/dc/dcmitype/StillImage" />
        <dc:title></dc:title>
      </cc:Work>
    </rdf:RDF>
  </metadata>
  <defs
     id="defs14" />
  <path
     id="circle6"
     d="M 12 0 A 12 12 0 0 0 0 12 A 12 12 0 0 0 12 24 A 12 12 0 0 0 24 12 A 12 12 0 0 0 12 0 z M 12 6 C 12.554 6 13 6.446 13 7 L 13 14 C 13 14.554 12.554 15 12 15 C 11.446 15 11 14.554 11 14 L 11 7 C 11 6.446 11.446 6 12 6 z M 12 17 C 12.554 17 13 17.446 13 18 C 13 18.554 12.554 19 12 19 C 11.446 19 11 18.554 11 18 C 11 17.446 11.446 17 12 17 z "
     style="fill:#ff7979;fill-rule:evenodd;fill-opacity:1" />
</svg>
